<?xml version="1.0" encoding="UTF-8" standalone="no"?>
<!DOCTYPE svg PUBLIC "-//W3C//DTD SVG 1.1//EN" "http://www.w3.org/Graphics/SVG/1.1/DTD/svg11.dtd">
<svg width="100%" height="100%" viewBox="0 0 512 410" version="1.1" xmlns="http://www.w3.org/2000/svg" xmlns:xlink="http://www.w3.org/1999/xlink" xml:space="preserve" xmlns:serif="http://www.serif.com/" style="fill-rule:evenodd;clip-rule:evenodd;stroke-linejoin:round;stroke-miterlimit:1.41421;">
    <g id="solid" transform="matrix(34.1333,0,0,34.1333,-7287.23,-6688.83)">
        <path d="M225.493,196.712C225.185,196.712 224.895,196.774 224.617,196.862C224.385,196.333 223.858,195.962 223.243,195.962C222.415,195.962 221.743,196.633 221.743,197.462C221.743,198.016 222.047,198.494 222.493,198.754L222.493,199.712C222.493,200.126 222.829,200.462 223.243,200.462L223.431,200.462C223.534,200.462 223.618,200.546 223.618,200.649L223.618,201.024C223.618,201.128 223.534,201.212 223.431,201.212L223.243,201.212C222.416,201.212 221.743,200.539 221.743,199.712L221.743,199.131C221.273,198.708 220.993,198.101 220.993,197.462C220.993,197.198 221.047,196.948 221.131,196.712L217.993,196.712C215.508,196.712 213.493,198.727 213.493,201.212L213.493,203.837C213.493,204.044 213.661,204.212 213.868,204.212L214.243,204.212L214.243,207.587C214.243,207.794 214.411,207.962 214.618,207.962L216.118,207.962C216.325,207.962 216.493,207.794 216.493,207.587L216.493,205.059C217.251,205.471 218.151,205.712 219.118,205.712C220.086,205.712 220.985,205.471 221.743,205.059L221.743,207.587C221.743,207.794 221.911,207.962 222.118,207.962L223.618,207.962C223.825,207.962 223.993,207.794 223.993,207.587L223.993,202.712L225.493,202.712C226.043,202.712 226.55,202.553 226.993,202.296L226.993,204.587C226.993,204.794 226.825,204.962 226.618,204.962C226.411,204.962 226.243,204.794 226.243,204.587C226.243,204.38 226.075,204.212 225.868,204.212L225.118,204.212C224.911,204.212 224.743,204.38 224.743,204.587C224.743,205.685 225.693,206.566 226.814,206.452C227.79,206.352 228.493,205.457 228.493,204.476L228.493,199.712C228.493,198.055 227.15,196.712 225.493,196.712ZM225.868,199.712C225.661,199.712 225.493,199.544 225.493,199.337C225.493,199.13 225.661,198.962 225.868,198.962C226.075,198.962 226.243,199.13 226.243,199.337C226.243,199.544 226.075,199.712 225.868,199.712Z" style="fill:rgb(137,147,190);fill-rule:nonzero;"/>
    </g>
</svg>
