<?xml version="1.0" encoding="UTF-8" standalone="no"?>
<!DOCTYPE svg PUBLIC "-//W3C//DTD SVG 1.1//EN" "http://www.w3.org/Graphics/SVG/1.1/DTD/svg11.dtd">
<svg width="100%" height="100%" viewBox="0 0 1024 764" version="1.1" xmlns="http://www.w3.org/2000/svg" xmlns:xlink="http://www.w3.org/1999/xlink" xml:space="preserve" xmlns:serif="http://www.serif.com/" style="fill-rule:evenodd;clip-rule:evenodd;stroke-linejoin:round;stroke-miterlimit:1.41421;">
    <g transform="matrix(1,0,0,1,1.13687e-13,-129.459)">
        <path d="M688.283,155.417C738.135,143.392 801.574,169.196 848.357,194.616C951.069,250.425 1005.15,313.687 1017.96,366.384C1032.63,426.693 1025.67,475.642 939.014,535.237C858.093,590.888 775.036,669.719 710.407,634.888C770.624,578.136 808.502,495.963 808.502,404.614C808.502,302.533 761.202,211.911 688.283,155.417Z" style="fill:url(#_Radial1);"/>
    </g>
    <g transform="matrix(1,0,0,1,1.13687e-13,-129.459)">
        <path d="M313.593,634.888C248.964,669.719 165.907,590.888 84.986,535.237C-1.67,475.642 -8.627,426.693 6.039,366.384C18.854,313.687 72.931,250.425 175.643,194.616C222.426,169.196 285.865,143.392 335.717,155.417C262.798,211.911 215.498,302.533 215.498,404.614C215.498,495.963 253.376,578.136 313.593,634.888Z" style="fill:url(#_Radial2);"/>
    </g>
    <g transform="matrix(1,0,0,1,1.13687e-13,-129.459)">
        <path d="M449.358,672.116C334.194,642.698 248.62,534.021 248.62,404.614C248.62,252.644 366.637,129.263 512,129.263C657.363,129.263 775.38,252.644 775.38,404.614C775.38,534.021 689.806,642.698 574.642,672.116L574.642,864.201C574.642,880.349 560.607,893.459 543.321,893.459L480.679,893.459C463.393,893.459 449.358,880.349 449.358,864.201L449.358,672.116Z" style="fill:url(#_Radial3);"/>
    </g>
    <defs>
        <radialGradient id="_Radial1" cx="0" cy="0" r="1" gradientUnits="userSpaceOnUse" gradientTransform="matrix(816.813,0,0,816.813,183.199,249.544)"><stop offset="0" style="stop-color:rgb(183,192,232);stop-opacity:1"/><stop offset="0.27" style="stop-color:rgb(117,130,187);stop-opacity:1"/><stop offset="1" style="stop-color:rgb(57,80,179);stop-opacity:1"/></radialGradient>
        <radialGradient id="_Radial2" cx="0" cy="0" r="1" gradientUnits="userSpaceOnUse" gradientTransform="matrix(816.813,0,0,816.813,183.199,249.544)"><stop offset="0" style="stop-color:rgb(183,192,232);stop-opacity:1"/><stop offset="0.27" style="stop-color:rgb(117,130,187);stop-opacity:1"/><stop offset="1" style="stop-color:rgb(57,80,179);stop-opacity:1"/></radialGradient>
        <radialGradient id="_Radial3" cx="0" cy="0" r="1" gradientUnits="userSpaceOnUse" gradientTransform="matrix(816.813,0,0,816.813,183.199,249.544)"><stop offset="0" style="stop-color:rgb(183,192,232);stop-opacity:1"/><stop offset="0.27" style="stop-color:rgb(117,130,187);stop-opacity:1"/><stop offset="1" style="stop-color:rgb(57,80,179);stop-opacity:1"/></radialGradient>
    </defs>
</svg>
