<?xml version="1.0" encoding="UTF-8" standalone="no"?>
<!DOCTYPE svg PUBLIC "-//W3C//DTD SVG 1.1//EN" "http://www.w3.org/Graphics/SVG/1.1/DTD/svg11.dtd">
<svg width="100%" height="100%" viewBox="0 0 512 512" version="1.1" xmlns="http://www.w3.org/2000/svg" xmlns:xlink="http://www.w3.org/1999/xlink" xml:space="preserve" xmlns:serif="http://www.serif.com/" style="fill-rule:evenodd;clip-rule:evenodd;stroke-linejoin:round;stroke-miterlimit:1.41421;">
    <rect x="0" y="0" width="512" height="512" style="fill:rgb(197,202,233);"/>
    <g transform="matrix(1.06207,0,0,1.06207,-35.3731,222.804)">
        <path d="M346.422,-21.802L320.654,-21.802C317.476,-25.07 304.325,-39.785 278.916,-39.785C257.496,-39.785 243.76,-29.531 236.42,-21.802L166.422,-21.802C106.774,-21.802 58.422,26.55 58.422,86.204L58.422,158.209L76.422,158.209L76.422,230.215C76.422,240.154 84.483,248.215 94.422,248.215L130.422,248.215C140.361,248.215 148.422,240.154 148.422,230.215L148.422,185.209C175.664,198.827 195.149,206.848 238.422,185.209L238.422,230.215C238.422,240.154 246.483,248.215 256.422,248.215L292.422,248.215C302.361,248.215 310.422,240.154 310.422,230.215L310.422,122.204L364.422,122.204L364.422,140.204L346.422,140.204C336.483,140.204 328.422,148.264 328.422,158.204L328.422,164.543C328.422,188.078 345.308,209.576 368.719,211.961C395.635,214.706 418.422,193.562 418.422,167.198L418.422,50.198C418.422,10.429 386.185,-21.802 346.422,-21.802ZM292.422,230.215L256.422,230.215L256.422,156.083L230.373,169.11C199.536,184.529 187.358,184.557 156.471,169.11L130.422,156.083L130.422,230.215L94.422,230.215L94.422,140.209L76.422,140.209L76.422,86.204C76.422,36.574 116.798,-3.802 166.422,-3.802L225.141,-3.802C224.523,-2.278 223.623,-0.883 223.144,0.698C218.104,17.28 220.096,34.375 228.736,48.775C235.221,59.569 244.998,67.928 256.422,72.698C256.422,95.282 271.711,114.171 292.422,120.094L292.422,230.215ZM400.422,167.209C400.422,182.098 388.311,194.209 373.422,194.209C358.533,194.209 346.422,182.098 346.422,167.209L346.422,158.209L364.422,158.209L364.422,167.209C364.422,172.176 368.467,176.209 373.422,176.209C378.377,176.209 382.422,172.176 382.422,167.209L382.422,104.204L305.922,104.204C288.552,104.204 274.422,90.074 274.422,72.704L274.422,60.711L263.358,56.093C247.186,49.337 233.039,30.055 240.368,5.935C245.194,-9.962 260.028,-21.785 278.916,-21.785C297.4,-21.785 305.196,-11.879 313.06,-3.802L346.422,-3.802C376.201,-3.802 400.422,20.425 400.422,50.204L400.422,167.209ZM355.422,32.198C350.45,32.198 346.422,36.225 346.422,41.198C346.422,46.17 350.45,50.198 355.422,50.198C360.394,50.198 364.422,46.17 364.422,41.198C364.422,36.225 360.394,32.198 355.422,32.198Z" style="fill:rgb(63,81,181);fill-rule:nonzero;"/>
    </g>
    <g transform="matrix(1,0,0,1,177.997,28.8407)">
        <path d="M281.087,80.898L271.915,75.603C272.154,73.712 272.347,70.632 272.347,68.726C272.347,66.821 272.154,63.74 271.915,61.85L281.087,56.555C283.78,55 285.079,51.801 284.193,48.82C281.039,38.203 275.425,28.647 268.012,20.809C265.865,18.539 262.438,18.043 259.732,19.605L250.574,24.892C247.529,22.574 242.194,19.49 238.667,18.007L238.667,7.428C238.667,4.298 236.514,1.577 233.468,0.856C222.881,-1.65 211.778,-1.65 201.189,0.856C198.143,1.577 195.99,4.297 195.99,7.428L195.99,18.007C192.462,19.49 187.127,22.574 184.082,24.892L174.924,19.605C172.218,18.043 168.792,18.539 166.645,20.809C159.231,28.647 153.617,38.204 150.463,48.82C149.578,51.801 150.877,55 153.57,56.555L162.742,61.85C162.503,63.74 162.309,66.821 162.309,68.726C162.309,70.632 162.503,73.712 162.742,75.603L153.57,80.898C150.877,82.453 149.578,85.652 150.463,88.633C153.617,99.249 159.231,108.806 166.645,116.644C168.792,118.914 172.219,119.41 174.924,117.848L184.082,112.561C187.127,114.879 192.462,117.963 195.99,119.446L195.99,130.025C195.99,133.155 198.142,135.876 201.189,136.597C211.776,139.103 222.878,139.103 233.468,136.597C236.514,135.876 238.667,133.156 238.667,130.025L238.667,119.446C242.194,117.963 247.529,114.879 250.574,112.561L259.732,117.848C262.438,119.41 265.865,118.914 268.012,116.644C275.425,108.806 281.039,99.249 284.193,88.633C285.079,85.652 283.78,82.453 281.087,80.898ZM262.671,109.153L249.646,101.632C242.056,108.121 239.364,109.753 229.667,113.18L229.667,128.221C226.297,128.916 220.769,129.48 217.328,129.48C213.887,129.48 208.36,128.916 204.99,128.221L204.99,113.18C195.534,109.839 192.797,108.288 185.01,101.632L171.986,109.153C166.443,102.94 162.23,95.656 159.631,87.79L172.661,80.269C170.823,70.308 170.822,67.15 172.661,57.184L159.631,49.663C162.23,41.797 166.443,34.513 171.986,28.297L185.01,35.823C192.71,29.233 195.435,27.649 204.99,24.273L204.99,9.232C208.36,8.536 213.887,7.971 217.328,7.971C220.769,7.971 226.297,8.536 229.667,9.232L229.667,24.273C239.223,27.65 241.947,29.233 249.646,35.824L262.671,28.297C268.214,34.513 272.427,41.797 275.026,49.664L261.996,57.184C263.834,67.148 263.835,70.303 261.996,80.269L275.026,87.79C272.427,95.656 268.214,102.94 262.671,109.153ZM217.328,41.727C202.44,41.727 190.328,53.839 190.328,68.727C190.328,83.614 202.44,95.727 217.328,95.727C232.216,95.727 244.328,83.614 244.328,68.727C244.328,53.839 232.216,41.727 217.328,41.727ZM217.328,86.727C207.403,86.727 199.328,78.652 199.328,68.727C199.328,58.801 207.403,50.727 217.328,50.727C227.254,50.727 235.328,58.801 235.328,68.727C235.328,78.652 227.254,86.727 217.328,86.727Z" style="fill:rgb(63,81,181);fill-rule:nonzero;"/>
    </g>
</svg>
