<?xml version="1.0" encoding="UTF-8" standalone="no"?>
<!DOCTYPE svg PUBLIC "-//W3C//DTD SVG 1.1//EN" "http://www.w3.org/Graphics/SVG/1.1/DTD/svg11.dtd">
<svg width="100%" height="100%" viewBox="0 0 512 512" version="1.1" xmlns="http://www.w3.org/2000/svg" xmlns:xlink="http://www.w3.org/1999/xlink" xml:space="preserve" xmlns:serif="http://www.serif.com/" style="fill-rule:evenodd;clip-rule:evenodd;stroke-linejoin:round;stroke-miterlimit:1.41421;">
    <rect x="0" y="0" width="512" height="512" style="fill:rgb(197,202,233);"/>
    <g transform="matrix(1.06207,0,0,1.06207,-35.3731,222.804)">
        <path d="M346.422,-21.802L320.654,-21.802C317.476,-25.07 304.325,-39.785 278.916,-39.785C257.496,-39.785 243.76,-29.531 236.42,-21.802L166.422,-21.802C106.774,-21.802 58.422,26.55 58.422,86.204L58.422,158.209L76.422,158.209L76.422,230.215C76.422,240.154 84.483,248.215 94.422,248.215L130.422,248.215C140.361,248.215 148.422,240.154 148.422,230.215L148.422,185.209C175.664,198.827 195.149,206.848 238.422,185.209L238.422,230.215C238.422,240.154 246.483,248.215 256.422,248.215L292.422,248.215C302.361,248.215 310.422,240.154 310.422,230.215L310.422,122.204L364.422,122.204L364.422,140.204L346.422,140.204C336.483,140.204 328.422,148.264 328.422,158.204L328.422,164.543C328.422,188.078 345.308,209.576 368.719,211.961C395.635,214.706 418.422,193.562 418.422,167.198L418.422,50.198C418.422,10.429 386.185,-21.802 346.422,-21.802ZM292.422,230.215L256.422,230.215L256.422,156.083L230.373,169.11C199.536,184.529 187.358,184.557 156.471,169.11L130.422,156.083L130.422,230.215L94.422,230.215L94.422,140.209L76.422,140.209L76.422,86.204C76.422,36.574 116.798,-3.802 166.422,-3.802L225.141,-3.802C224.523,-2.278 223.623,-0.883 223.144,0.698C218.104,17.28 220.096,34.375 228.736,48.775C235.221,59.569 244.998,67.928 256.422,72.698C256.422,95.282 271.711,114.171 292.422,120.094L292.422,230.215ZM400.422,167.209C400.422,182.098 388.311,194.209 373.422,194.209C358.533,194.209 346.422,182.098 346.422,167.209L346.422,158.209L364.422,158.209L364.422,167.209C364.422,172.176 368.467,176.209 373.422,176.209C378.377,176.209 382.422,172.176 382.422,167.209L382.422,104.204L305.922,104.204C288.552,104.204 274.422,90.074 274.422,72.704L274.422,60.711L263.358,56.093C247.186,49.337 233.039,30.055 240.368,5.935C245.194,-9.962 260.028,-21.785 278.916,-21.785C297.4,-21.785 305.196,-11.879 313.06,-3.802L346.422,-3.802C376.201,-3.802 400.422,20.425 400.422,50.204L400.422,167.209ZM355.422,32.198C350.45,32.198 346.422,36.225 346.422,41.198C346.422,46.17 350.45,50.198 355.422,50.198C360.394,50.198 364.422,46.17 364.422,41.198C364.422,36.225 360.394,32.198 355.422,32.198Z" style="fill:rgb(63,81,181);fill-rule:nonzero;"/>
    </g>
    <g transform="matrix(1,0,0,1,177.997,28.8407)">
        <path d="M200.594,140.67C201.466,140.924 202.422,140.389 202.675,139.489L242.247,0.889C242.5,-0.011 241.994,-0.939 241.094,-1.192L234.063,-3.189C233.163,-3.442 232.235,-2.936 231.981,-2.036L192.41,136.592C192.156,137.492 192.663,138.42 193.563,138.674L200.594,140.67ZM179.332,105.43L184.535,99.551C185.069,98.961 184.985,98.061 184.394,97.555L150.363,68.727L184.394,39.898C184.985,39.392 185.069,38.492 184.535,37.902L179.332,32.023C178.825,31.433 177.925,31.377 177.335,31.911L136.807,67.686C136.16,68.248 136.16,69.233 136.807,69.795L177.335,105.57C177.925,106.077 178.825,106.02 179.332,105.43ZM257.322,105.542L297.85,69.767C298.497,69.205 298.497,68.22 297.85,67.658L257.322,31.911C256.731,31.405 255.86,31.461 255.325,32.023L250.122,37.902C249.588,38.492 249.672,39.392 250.263,39.898L284.294,68.727L250.263,97.555C249.672,98.061 249.588,98.961 250.122,99.551L255.325,105.43C255.832,106.02 256.731,106.077 257.322,105.542Z" style="fill:rgb(63,81,181);fill-rule:nonzero;"/>
    </g>
</svg>
