<?xml version="1.0" encoding="UTF-8" standalone="no"?>
<!DOCTYPE svg PUBLIC "-//W3C//DTD SVG 1.1//EN" "http://www.w3.org/Graphics/SVG/1.1/DTD/svg11.dtd">
<svg width="100%" height="100%" viewBox="0 0 512 512" version="1.1" xmlns="http://www.w3.org/2000/svg" xmlns:xlink="http://www.w3.org/1999/xlink" xml:space="preserve" xmlns:serif="http://www.serif.com/" style="fill-rule:evenodd;clip-rule:evenodd;stroke-linejoin:round;stroke-miterlimit:1.41421;">
    <rect x="0" y="0" width="512" height="512" style="fill:rgb(197,202,233);"/>
    <g transform="matrix(1.06207,0,0,1.06207,-35.3731,222.804)">
        <path d="M346.422,-21.802L320.654,-21.802C317.476,-25.07 304.325,-39.785 278.916,-39.785C257.496,-39.785 243.76,-29.531 236.42,-21.802L166.422,-21.802C106.774,-21.802 58.422,26.55 58.422,86.204L58.422,158.209L76.422,158.209L76.422,230.215C76.422,240.154 84.483,248.215 94.422,248.215L130.422,248.215C140.361,248.215 148.422,240.154 148.422,230.215L148.422,185.209C175.664,198.827 195.149,206.848 238.422,185.209L238.422,230.215C238.422,240.154 246.483,248.215 256.422,248.215L292.422,248.215C302.361,248.215 310.422,240.154 310.422,230.215L310.422,122.204L364.422,122.204L364.422,140.204L346.422,140.204C336.483,140.204 328.422,148.264 328.422,158.204L328.422,164.543C328.422,188.078 345.308,209.576 368.719,211.961C395.635,214.706 418.422,193.562 418.422,167.198L418.422,50.198C418.422,10.429 386.185,-21.802 346.422,-21.802ZM292.422,230.215L256.422,230.215L256.422,156.083L230.373,169.11C199.536,184.529 187.358,184.557 156.471,169.11L130.422,156.083L130.422,230.215L94.422,230.215L94.422,140.209L76.422,140.209L76.422,86.204C76.422,36.574 116.798,-3.802 166.422,-3.802L225.141,-3.802C224.523,-2.278 223.623,-0.883 223.144,0.698C218.104,17.28 220.096,34.375 228.736,48.775C235.221,59.569 244.998,67.928 256.422,72.698C256.422,95.282 271.711,114.171 292.422,120.094L292.422,230.215ZM400.422,167.209C400.422,182.098 388.311,194.209 373.422,194.209C358.533,194.209 346.422,182.098 346.422,167.209L346.422,158.209L364.422,158.209L364.422,167.209C364.422,172.176 368.467,176.209 373.422,176.209C378.377,176.209 382.422,172.176 382.422,167.209L382.422,104.204L305.922,104.204C288.552,104.204 274.422,90.074 274.422,72.704L274.422,60.711L263.358,56.093C247.186,49.337 233.039,30.055 240.368,5.935C245.194,-9.962 260.028,-21.785 278.916,-21.785C297.4,-21.785 305.196,-11.879 313.06,-3.802L346.422,-3.802C376.201,-3.802 400.422,20.425 400.422,50.204L400.422,167.209ZM355.422,32.198C350.45,32.198 346.422,36.225 346.422,41.198C346.422,46.17 350.45,50.198 355.422,50.198C360.394,50.198 364.422,46.17 364.422,41.198C364.422,36.225 360.394,32.198 355.422,32.198Z" style="fill:rgb(63,81,181);fill-rule:nonzero;"/>
    </g>
    <g transform="matrix(1,0,0,1,177.997,28.8407)">
        <path d="M217.328,5.727C247.141,5.727 271.328,13.813 271.328,23.727L271.328,32.727C271.328,42.641 247.141,50.727 217.328,50.727C187.516,50.727 163.328,42.641 163.328,32.727L163.328,23.727C163.328,13.813 187.516,5.727 217.328,5.727ZM271.328,47.773L271.328,59.727C271.328,69.641 247.141,77.727 217.328,77.727C187.516,77.727 163.328,69.641 163.328,59.727L163.328,47.773C174.93,55.93 196.164,59.727 217.328,59.727C238.492,59.727 259.727,55.93 271.328,47.773ZM271.328,74.773L271.328,86.727C271.328,96.641 247.141,104.727 217.328,104.727C187.516,104.727 163.328,96.641 163.328,86.727L163.328,74.773C174.93,82.93 196.164,86.727 217.328,86.727C238.492,86.727 259.727,82.93 271.328,74.773ZM271.328,101.773L271.328,113.727C271.328,123.641 247.141,131.727 217.328,131.727C187.516,131.727 163.328,123.641 163.328,113.727L163.328,101.773C174.93,109.93 196.164,113.727 217.328,113.727C238.492,113.727 259.727,109.93 271.328,101.773ZM217.328,-3.273C195.351,-3.273 154.328,2.014 154.328,23.727L154.328,113.727C154.328,135.478 195.418,140.727 217.328,140.727C239.306,140.727 280.328,135.439 280.328,113.727L280.328,23.727C280.328,1.975 239.239,-3.273 217.328,-3.273Z" style="fill:rgb(63,81,181);fill-rule:nonzero;"/>
    </g>
</svg>
