<?xml version="1.0" encoding="UTF-8" standalone="no"?>
<!DOCTYPE svg PUBLIC "-//W3C//DTD SVG 1.1//EN" "http://www.w3.org/Graphics/SVG/1.1/DTD/svg11.dtd">
<svg width="100%" height="100%" viewBox="0 0 512 512" version="1.1" xmlns="http://www.w3.org/2000/svg" xmlns:xlink="http://www.w3.org/1999/xlink" xml:space="preserve" xmlns:serif="http://www.serif.com/" style="fill-rule:evenodd;clip-rule:evenodd;stroke-linejoin:round;stroke-miterlimit:1.41421;">
    <rect x="0" y="0" width="512" height="512" style="fill:rgb(255,224,178);"/>
    <g transform="matrix(1.06207,0,0,1.06207,-35.3731,222.804)">
        <path d="M346.422,-21.802L320.654,-21.802C317.476,-25.07 304.325,-39.785 278.916,-39.785C257.496,-39.785 243.76,-29.531 236.42,-21.802L166.422,-21.802C106.774,-21.802 58.422,26.55 58.422,86.204L58.422,158.209L76.422,158.209L76.422,230.215C76.422,240.154 84.483,248.215 94.422,248.215L130.422,248.215C140.361,248.215 148.422,240.154 148.422,230.215L148.422,185.209C175.664,198.827 195.149,206.848 238.422,185.209L238.422,230.215C238.422,240.154 246.483,248.215 256.422,248.215L292.422,248.215C302.361,248.215 310.422,240.154 310.422,230.215L310.422,122.204L364.422,122.204L364.422,140.204L346.422,140.204C336.483,140.204 328.422,148.264 328.422,158.204L328.422,164.543C328.422,188.078 345.308,209.576 368.719,211.961C395.635,214.706 418.422,193.562 418.422,167.198L418.422,50.198C418.422,10.429 386.185,-21.802 346.422,-21.802ZM292.422,230.215L256.422,230.215L256.422,156.083L230.373,169.11C199.536,184.529 187.358,184.557 156.471,169.11L130.422,156.083L130.422,230.215L94.422,230.215L94.422,140.209L76.422,140.209L76.422,86.204C76.422,36.574 116.798,-3.802 166.422,-3.802L225.141,-3.802C224.523,-2.278 223.623,-0.883 223.144,0.698C218.104,17.28 220.096,34.375 228.736,48.775C235.221,59.569 244.998,67.928 256.422,72.698C256.422,95.282 271.711,114.171 292.422,120.094L292.422,230.215ZM400.422,167.209C400.422,182.098 388.311,194.209 373.422,194.209C358.533,194.209 346.422,182.098 346.422,167.209L346.422,158.209L364.422,158.209L364.422,167.209C364.422,172.176 368.467,176.209 373.422,176.209C378.377,176.209 382.422,172.176 382.422,167.209L382.422,104.204L305.922,104.204C288.552,104.204 274.422,90.074 274.422,72.704L274.422,60.711L263.358,56.093C247.186,49.337 233.039,30.055 240.368,5.935C245.194,-9.962 260.028,-21.785 278.916,-21.785C297.4,-21.785 305.196,-11.879 313.06,-3.802L346.422,-3.802C376.201,-3.802 400.422,20.425 400.422,50.204L400.422,167.209ZM355.422,32.198C350.45,32.198 346.422,36.225 346.422,41.198C346.422,46.17 350.45,50.198 355.422,50.198C360.394,50.198 364.422,46.17 364.422,41.198C364.422,36.225 360.394,32.198 355.422,32.198Z" style="fill:rgb(251,140,0);fill-rule:nonzero;"/>
    </g>
    <g transform="matrix(1,0,0,1,202.925,71.6738)">
        <path d="M114.156,47.877C113.534,48.235 113.03,49.108 113.03,49.826C113.03,50.159 113.165,50.663 113.332,50.951L115.582,54.849C115.94,55.471 116.813,55.975 117.53,55.975C117.863,55.975 118.368,55.84 118.656,55.673L146.561,39.563C144.677,37.181 142.967,34.7 141.496,32.096L114.156,47.877ZM133.992,3.4L104.65,3.4C103.406,3.4 102.4,4.407 102.4,5.65L102.4,10.15C102.4,11.393 103.406,12.4 104.65,12.4L134.608,12.4C134.15,9.442 133.998,6.429 133.992,3.4ZM114.156,-32.08L138.107,-18.251C139.223,-21.066 140.559,-23.757 142.092,-26.342L118.656,-39.873C118.368,-40.04 117.863,-40.175 117.53,-40.175C116.813,-40.175 115.94,-39.67 115.582,-39.049L113.332,-35.151C112.71,-34.076 113.078,-32.701 114.156,-32.08ZM270.643,-32.08C271.265,-32.438 271.769,-33.311 271.769,-34.028C271.769,-34.361 271.634,-34.865 271.467,-35.154L269.217,-39.052C268.859,-39.673 267.986,-40.177 267.269,-40.177C266.936,-40.177 266.431,-40.042 266.143,-39.876L242.693,-26.337C244.223,-23.757 245.573,-21.069 246.698,-18.256L270.643,-32.08ZM280.15,3.4L250.9,3.4C250.9,6.438 250.548,9.433 250.084,12.4L280.15,12.4C281.393,12.4 282.4,11.393 282.4,10.15L282.4,5.65C282.4,4.407 281.393,3.4 280.15,3.4ZM270.643,47.877L243.252,32.062C241.776,34.678 240.032,37.133 238.153,39.51L266.143,55.67C267.221,56.292 268.596,55.924 269.217,54.846L271.467,50.948C272.089,49.874 271.721,48.498 270.643,47.877ZM192.4,-28.1C175.032,-28.1 160.9,-13.967 160.9,3.4C160.9,5.886 162.913,7.9 165.4,7.9C167.886,7.9 169.9,5.886 169.9,3.4C169.9,-9.006 179.991,-19.1 192.4,-19.1C194.886,-19.1 196.9,-21.114 196.9,-23.6C196.9,-26.089 194.886,-28.1 192.4,-28.1ZM192.4,-46.1C163.445,-46.1 142.866,-22.604 142.9,3.468C142.916,15.921 147.54,27.281 155.151,35.963C162.365,44.193 169.295,57.594 169.9,61.9L169.916,83.044C169.916,83.93 170.181,84.794 170.67,85.531L177.564,95.892C178.399,97.146 179.805,97.9 181.31,97.9L203.486,97.9C204.994,97.9 206.4,97.146 207.233,95.892L214.126,85.531C214.616,84.794 214.877,83.928 214.88,83.044L214.9,61.9C215.535,57.479 222.491,44.128 229.648,35.963C237.273,27.264 241.9,15.879 241.9,3.4C241.9,-23.937 219.737,-46.1 192.4,-46.1ZM205.883,81.675L201.076,88.9L183.72,88.9L178.914,81.675L178.911,79.9L205.883,79.9L205.883,81.675ZM205.894,70.9L178.902,70.9L178.883,61.9L205.905,61.9L205.894,70.9ZM222.881,30.029C218.947,34.518 212.664,43.557 208.656,52.897L176.146,52.897C172.135,43.554 165.855,34.518 161.92,30.029C155.415,22.609 151.936,13.199 151.914,3.4C151.863,-18.253 168.895,-37.1 192.4,-37.1C214.731,-37.1 232.9,-18.931 232.9,3.4C232.9,13.202 229.342,22.66 222.881,30.029Z" style="fill:rgb(251,140,0);fill-rule:nonzero;"/>
    </g>
</svg>
