<?xml version="1.0" encoding="UTF-8" standalone="no"?>
<!DOCTYPE svg PUBLIC "-//W3C//DTD SVG 1.1//EN" "http://www.w3.org/Graphics/SVG/1.1/DTD/svg11.dtd">
<svg width="100%" height="100%" viewBox="0 0 512 512" version="1.1" xmlns="http://www.w3.org/2000/svg" xmlns:xlink="http://www.w3.org/1999/xlink" xml:space="preserve" xmlns:serif="http://www.serif.com/" style="fill-rule:evenodd;clip-rule:evenodd;stroke-linejoin:round;stroke-miterlimit:1.41421;">
    <rect x="0" y="0" width="512" height="512" style="fill:rgb(238,238,238);"/>
    <g transform="matrix(1.06207,0,0,1.06207,-35.3731,222.804)">
        <path d="M346.422,-21.802L320.654,-21.802C317.476,-25.07 304.325,-39.785 278.916,-39.785C257.496,-39.785 243.76,-29.531 236.42,-21.802L166.422,-21.802C106.774,-21.802 58.422,26.55 58.422,86.204L58.422,158.209L76.422,158.209L76.422,230.215C76.422,240.154 84.483,248.215 94.422,248.215L130.422,248.215C140.361,248.215 148.422,240.154 148.422,230.215L148.422,185.209C175.664,198.827 195.149,206.848 238.422,185.209L238.422,230.215C238.422,240.154 246.483,248.215 256.422,248.215L292.422,248.215C302.361,248.215 310.422,240.154 310.422,230.215L310.422,122.204L364.422,122.204L364.422,140.204L346.422,140.204C336.483,140.204 328.422,148.264 328.422,158.204L328.422,164.543C328.422,188.078 345.308,209.576 368.719,211.961C395.635,214.706 418.422,193.562 418.422,167.198L418.422,50.198C418.422,10.429 386.185,-21.802 346.422,-21.802ZM292.422,230.215L256.422,230.215L256.422,156.083L230.373,169.11C199.536,184.529 187.358,184.557 156.471,169.11L130.422,156.083L130.422,230.215L94.422,230.215L94.422,140.209L76.422,140.209L76.422,86.204C76.422,36.574 116.798,-3.802 166.422,-3.802L225.141,-3.802C224.523,-2.278 223.623,-0.883 223.144,0.698C218.104,17.28 220.096,34.375 228.736,48.775C235.221,59.569 244.998,67.928 256.422,72.698C256.422,95.282 271.711,114.171 292.422,120.094L292.422,230.215ZM400.422,167.209C400.422,182.098 388.311,194.209 373.422,194.209C358.533,194.209 346.422,182.098 346.422,167.209L346.422,158.209L364.422,158.209L364.422,167.209C364.422,172.176 368.467,176.209 373.422,176.209C378.377,176.209 382.422,172.176 382.422,167.209L382.422,104.204L305.922,104.204C288.552,104.204 274.422,90.074 274.422,72.704L274.422,60.711L263.358,56.093C247.186,49.337 233.039,30.055 240.368,5.935C245.194,-9.962 260.028,-21.785 278.916,-21.785C297.4,-21.785 305.196,-11.879 313.06,-3.802L346.422,-3.802C376.201,-3.802 400.422,20.425 400.422,50.204L400.422,167.209ZM355.422,32.198C350.45,32.198 346.422,36.225 346.422,41.198C346.422,46.17 350.45,50.198 355.422,50.198C360.394,50.198 364.422,46.17 364.422,41.198C364.422,36.225 360.394,32.198 355.422,32.198Z" style="fill:rgb(158,158,158);fill-rule:nonzero;"/>
    </g>
    <g transform="matrix(1,0,0,1,177.997,28.8407)">
        <path d="M266.828,5.727L167.828,5.727C160.375,5.727 154.328,11.773 154.328,19.227L154.328,118.227C154.328,125.68 160.375,131.727 167.828,131.727L266.828,131.727C274.281,131.727 280.328,125.68 280.328,118.227L280.328,19.227C280.328,11.773 274.281,5.727 266.828,5.727ZM271.328,118.227C271.328,120.702 269.303,122.727 266.828,122.727L167.828,122.727C165.353,122.727 163.328,120.702 163.328,118.227L163.328,19.227C163.328,16.752 165.353,14.727 167.828,14.727L266.828,14.727C269.303,14.727 271.328,16.752 271.328,19.227L271.328,118.227Z" style="fill:rgb(158,158,158);fill-rule:nonzero;"/>
    </g>
</svg>
